<svg height="100%" width="100%" id="svg" viewBox="0 0 1440 600" xmlns="http://www.w3.org/2000/svg"
     class="transition duration-300 ease-in-out delay-150">
    <defs>
        <linearGradient id="gradient">
            <stop offset="5%" stop-color="#002bdc66"></stop>
            <stop offset="95%" stop-color="#32ded466"></stop>
        </linearGradient>
    </defs>
    <path
            d="M 0,600 C 0,600 0,150 0,150 C 51.98144967365167,128.51116454826519 103.96289934730333,107.0223290965304 169,99 C 234.03710065269667,90.9776709034696 312.1298522844383,96.4218481621436 389,104 C 465.8701477155617,111.5781518378564 541.5176915149433,121.29027825489523 621,119 C 700.4823084850567,116.70972174510477 783.7993816557886,102.41703881827551 851,102 C 918.2006183442114,101.58296118172449 969.2847818619032,115.04156647200276 1027,135 C 1084.7152181380968,154.95843352799724 1149.0614908965993,181.4166952937135 1219,185 C 1288.9385091034007,188.5833047062865 1364.4692545517005,169.29165235314326 1440,150 C 1440,150 1440,600 1440,600 Z"
            stroke="none" stroke-width="0" fill="url(#gradient)"
            class="transition-all duration-300 ease-in-out delay-150">
    </path>
    <defs>
        <linearGradient id="gradient">
            <stop offset="5%" stop-color="#002bdc88"></stop>
            <stop offset="95%" stop-color="#32ded488"></stop>
        </linearGradient>
    </defs>
    <path
            d="M 0,600 C 0,600 0,300 0,300 C 75.2724149776709,315.2847818619031 150.5448299553418,330.56956372380625 220,338 C 289.4551700446582,345.43043627619375 353.09309515630366,345.00652696667817 419,340 C 484.90690484369634,334.99347303332183 553.0827894194435,325.40432840948125 616,328 C 678.9172105805565,330.59567159051875 736.5757471659223,345.3761593953968 815,353 C 893.4242528340777,360.6238406046032 992.6142219168673,361.0910340089316 1056,355 C 1119.3857780831327,348.9089659910684 1146.9673651666094,336.25970456887666 1205,326 C 1263.0326348333906,315.74029543112334 1351.5163174166953,307.87014771556164 1440,300 C 1440,300 1440,600 1440,600 Z"
            stroke="none" stroke-width="0" fill="url(#gradient)"
            class="transition-all duration-300 ease-in-out delay-150">
    </path>
    <defs>
        <linearGradient id="gradient">
            <stop offset="5%" stop-color="#002bdcff"></stop>
            <stop offset="95%" stop-color="#32ded4ff"></stop>
        </linearGradient>
    </defs>
    <path
            d="M 0,600 C 0,600 0,450 0,450 C 89.73548608725523,435.02164204740643 179.47097217451045,420.0432840948128 238,436 C 296.52902782548955,451.9567159051872 323.85159738921334,498.8485056681552 392,502 C 460.14840261078666,505.1514943318448 569.1226382686361,464.5626932325662 641,451 C 712.8773617313639,437.4373067674338 747.6578495362419,450.90072140158026 801,454 C 854.3421504637581,457.09927859841974 926.2459635863966,449.83442116111297 995,446 C 1063.7540364136034,442.16557883888703 1129.3582961181723,441.7615939539677 1203,443 C 1276.6417038818277,444.2384060460323 1358.3208519409138,447.11920302301615 1440,450 C 1440,450 1440,600 1440,600 Z"
            stroke="none" stroke-width="0" fill="url(#gradient)"
            class="transition-all duration-300 ease-in-out delay-150">
    </path>
</svg>