<svg xmlns="http://www.w3.org/2000/svg" viewBox="0 0 225.59 193.41">
    <defs>
        <style>
            .cls-1{fill:#f8d8c0;}.cls-2{fill:#dfbfa9;}.cls-3{fill:#373d7a;}.cls-4{fill:#1c75bc;}.cls-5{fill:#186194;}.cls-6{fill:#36bfe9;}.cls-7{fill:#75cfe8;}
        </style>
    </defs>
    <g id="Layer_2" data-name="Layer 2">
        <g id="Logo">
            <path class="cls-1"
                  d="M209.93,85c-7.09-2.6-35.68-12-78.48-12-6.5,0-12.78.23-18.78.64C83.21,79.09,64.09,87,52.91,92.89c-.06,1.26-.1,2.53-.1,3.81a84.07,84.07,0,0,0,4.28,26.52c17.13,5.49,24,1.77,34.14-3.71,9.18-5,20.61-11.13,41.05-11.13,22.71,0,33.6,5.86,42.34,10.56,8.41,4.53,14.73,7.91,31.84,4.34a84.16,84.16,0,0,0,4.29-26.58A85.58,85.58,0,0,0,209.93,85Z"/>
            <path class="cls-2"
                  d="M53.62,83c-.76,3-.48,6.75-.71,9.87,32.09-13.17,55-18.32,97.47-19.24C87.89,70.65,70.53,80,53.62,83Z"/>
            <path class="cls-3"
                  d="M131.78,0C80.05,0,38,43.38,38,96.7s42.08,96.71,93.81,96.71S225.59,150,225.59,96.7,183.51,0,131.78,0Zm0,14.84c33.8,0,62.69,22.14,73.94,53.14-13.9-4.08-39.6-9.81-74.27-9.81a307.4,307.4,0,0,0-73.28,9C69.64,36.57,98.29,14.84,131.78,14.84Zm0,163.73c-28.13,0-52.85-15.35-66.85-38.36a53.42,53.42,0,0,0,7,.51c11.29,0,18.91-4.12,26.35-8.15,8.51-4.59,17.3-9.35,34-9.35,19,0,27.28,4.47,35.32,8.79,8.27,4.47,16.21,8.72,31.54,7.37C185.25,162.87,160.25,178.57,131.78,178.57Zm42.84-59.63c-8.74-4.7-19.63-10.56-42.34-10.56-20.44,0-31.87,6.17-41,11.13-10.11,5.48-17,9.2-34.14,3.71a84.12,84.12,0,0,1-3.26-39.55A290.28,290.28,0,0,1,131.45,73c42.8,0,71.39,9.36,78.48,12a85.58,85.58,0,0,1,.82,11.73,84.16,84.16,0,0,1-4.29,26.58C189.35,126.85,183,123.47,174.62,118.94Z"/>
            <path class="cls-4"
                  d="M189.91,139.49c-9.64-.68-15.89-4-22.31-7.48-8-4.32-16.35-8.79-35.32-8.79-16.7,0-25.49,4.76-34,9.35-7.44,4-15.06,8.15-26.35,8.15a53.42,53.42,0,0,1-7-.51,80,80,0,0,0,42.3,34.3C133.07,173.75,167,166.78,189.91,139.49Z"/>
            <path class="cls-5"
                  d="M199.14,139.38a57.63,57.63,0,0,1-9.23.11c-22.91,27.29-56.84,34.26-82.68,35a76.05,76.05,0,0,0,24.55,4.06C160.25,178.57,185.25,162.87,199.14,139.38Z"/>
            <path class="cls-6"
                  d="M140.26,15.32C98.6,17.78,74.8,43.44,58.19,67.07a.17.17,0,0,0,0,.05,307.4,307.4,0,0,1,73.28-9c34.67,0,60.37,5.73,74.27,9.81C195.42,39.6,170.35,18.67,140.26,15.32Z"/>
            <path class="cls-7"
                  d="M140.26,15.32a76.63,76.63,0,0,0-8.48-.48c-33.47,0-62.1,21.7-73.59,52.23C81,32.93,113.75,17.78,140.26,15.32Z"/>
            <path class="cls-3"
                  d="M6.5,78.38l8.22,19.53s7.07-11.65,20-16.81c.25-1.34.52-2.65.82-3.94C29.63,75.54,19.45,74.18,6.5,78.38Z"/>
            <path class="cls-3"
                  d="M4.57,46.66,0,70.06s18.77-4.58,36.64,2.49c.42-1.56.86-3.06,1.31-4.49C32.54,61.64,22.31,52.59,4.57,46.66Z"/>
            <ellipse class="cls-3" cx="98" cy="92.42" rx="11.24" ry="12.03"/>
            <ellipse class="cls-3" cx="165.57" cy="92.42" rx="11.24" ry="12.03"/>
        </g>
    </g>
</svg>